<?xml version="1.0" standalone="no"?>
<!DOCTYPE svg PUBLIC "-//W3C//DTD SVG 1.1//EN" "http://www.w3.org/Graphics/SVG/1.1/DTD/svg11.dtd">

<svg xmlns="http://www.w3.org/2000/svg" viewBox="0 0 650 400" version="1.1">
    <clipPath id="box">
        <rect x="0" y="0" width="650" height="400" style="fill:none;stroke:none;" />
    </clipPath>

    <g clip-path="url(#box)">
        <rect x="0.00" y="0.00" width="32.00" height="400.00" style="fill:#718c00;stroke:none;opacity:.8" />
        <rect x="32.00" y="0.00" width="33.00" height="400.00" style="fill:#eab700;stroke:none;opacity:.8" />
        <rect x="65.00" y="0.00" width="65.00" height="400.00" style="fill:#f5871f;stroke:none;opacity:.8" />
        <rect x="130.00" y="0.00" width="65.00" height="400.00" style="fill:#c82829;stroke:none;opacity:.8" />
        <rect x="195.00" y="0.00" width="455.00" height="400.00" style="fill:#4d4d4c;stroke:none;opacity:.8" />
        <rect x="0.00" y="0.00" width="650.00" height="400.00" style="fill:none;stroke:none;" />
        <path d="M0.00 400.00 L650.00 400.00 M0.00 320.00 L650.00 320.00 M0.00 240.00 L650.00 240.00 M0.00 159.00 L650.00 159.00 M0.00 79.00 L650.00 79.00 M0.00 0.00 L650.00 0.00 M0.00 0.00 L0.00 400.00 M65.00 0.00 L65.00 400.00 M130.00 0.00 L130.00 400.00 M195.00 0.00 L195.00 400.00 M260.00 0.00 L260.00 400.00 M325.00 0.00 L325.00 400.00 M390.00 0.00 L390.00 400.00 M454.00 0.00 L454.00 400.00 M520.00 0.00 L520.00 400.00 M584.00 0.00 L584.00 400.00 M649.00 0.00 L649.00 400.00 " style="fill:none;stroke:#D0D0D0;stroke-width:1;" />
        <path d="M0.00 0.00 L0.00 400.00 " style="fill:none;stroke:#000000;stroke-width:1;" />
        <path d="M-6.50 400.00 L6.50 400.00 M-6.50 320.00 L6.50 320.00 M-6.50 240.00 L6.50 240.00 M-6.50 160.00 L6.50 160.00 M-6.50 80.00 L6.50 80.00 M-6.50 0.00 L6.50 0.00 " style="fill:none;stroke:#000000;stroke-width:1;" />
        <path d="M0.00 400.00 L650.00 400.00 " style="fill:none;stroke:#000000;stroke-width:1;" />
        <path d="M0.00 393.50 L0.00 406.50 M65.00 393.50 L65.00 406.50 M130.00 393.50 L130.00 406.50 M195.00 393.50 L195.00 406.50 M260.00 393.50 L260.00 406.50 M325.00 393.50 L325.00 406.50 M390.00 393.50 L390.00 406.50 M455.00 393.50 L455.00 406.50 M520.00 393.50 L520.00 406.50 M585.00 393.50 L585.00 406.50 M650.00 393.50 L650.00 406.50 " style="fill:none;stroke:#000000;stroke-width:1;" />
        <text x="8.125" y="322.5" text-anchor="start" style="font:10px Droid Sans,Trebuchet MS,Arial,Helvetica,sans-serif;stroke:none;fill:#000000">0.2</text>
        <text x="8.125" y="242.5" text-anchor="start" style="font:10px Droid Sans,Trebuchet MS,Arial,Helvetica,sans-serif;stroke:none;fill:#000000">0.4</text>
        <text x="8.125" y="162.49999999999997" text-anchor="start" style="font:10px Droid Sans,Trebuchet MS,Arial,Helvetica,sans-serif;stroke:none;fill:#000000">0.6</text>
        <text x="8.125" y="82.49999999999999" text-anchor="start" style="font:10px Droid Sans,Trebuchet MS,Arial,Helvetica,sans-serif;stroke:none;fill:#000000">0.8</text>
        <text x="65" y="389.625" text-anchor="middle" style="font:10px Droid Sans,Trebuchet MS,Arial,Helvetica,sans-serif;stroke:none;fill:#000000">0.1</text>
        <text x="130" y="389.625" text-anchor="middle" style="font:10px Droid Sans,Trebuchet MS,Arial,Helvetica,sans-serif;stroke:none;fill:#000000">0.2</text>
        <text x="195.00000000000003" y="389.625" text-anchor="middle" style="font:10px Droid Sans,Trebuchet MS,Arial,Helvetica,sans-serif;stroke:none;fill:#000000">0.3</text>
        <text x="260" y="389.625" text-anchor="middle" style="font:10px Droid Sans,Trebuchet MS,Arial,Helvetica,sans-serif;stroke:none;fill:#000000">0.4</text>
        <text x="325" y="389.625" text-anchor="middle" style="font:10px Droid Sans,Trebuchet MS,Arial,Helvetica,sans-serif;stroke:none;fill:#000000">0.5</text>
        <text x="390" y="389.625" text-anchor="middle" style="font:10px Droid Sans,Trebuchet MS,Arial,Helvetica,sans-serif;stroke:none;fill:#000000">0.6</text>
        <text x="454.99999999999994" y="389.625" text-anchor="middle" style="font:10px Droid Sans,Trebuchet MS,Arial,Helvetica,sans-serif;stroke:none;fill:#000000">0.7</text>
        <text x="520" y="389.625" text-anchor="middle" style="font:10px Droid Sans,Trebuchet MS,Arial,Helvetica,sans-serif;stroke:none;fill:#000000">0.8</text>
        <text x="584.9999999999999" y="389.625" text-anchor="middle" style="font:10px Droid Sans,Trebuchet MS,Arial,Helvetica,sans-serif;stroke:none;fill:#000000">0.9</text>
        <path d="M-0.00 400.00 L-0.00 400.00 L0.32 399.00 L0.65 398.00 L0.98 397.01 L1.30 396.01 L1.63 395.01 L1.96 394.01 L2.29 393.02 L2.62 392.02 L2.95 391.02 L3.28 390.02 L3.62 389.03 L3.95 388.03 L4.28 387.03 L4.62 386.03 L4.96 385.04 L5.29 384.04 L5.63 383.04 L5.97 382.04 L6.31 381.05 L6.65 380.05 L6.99 379.05 L7.34 378.06 L7.68 377.06 L8.02 376.06 L8.37 375.06 L8.71 374.07 L9.06 373.07 L9.41 372.07 L9.76 371.07 L10.11 370.08 L10.46 369.08 L10.81 368.08 L11.16 367.08 L11.52 366.09 L11.87 365.09 L12.23 364.09 L12.58 363.10 L12.94 362.10 L13.30 361.10 L13.66 360.10 L14.02 359.11 L14.38 358.11 L14.74 357.11 L15.11 356.11 L15.47 355.12 L15.84 354.12 L16.20 353.12 L16.57 352.13 L16.94 351.13 L17.31 350.13 L17.68 349.13 L18.05 348.14 L18.43 347.14 L18.80 346.14 L19.17 345.15 L19.55 344.15 L19.93 343.15 L20.31 342.15 L20.69 341.16 L21.07 340.16 L21.45 339.16 L21.83 338.17 L22.21 337.17 L22.60 336.17 L22.99 335.18 L23.37 334.18 L23.76 333.18 L24.15 332.18 L24.54 331.19 L24.93 330.19 L25.33 329.19 L25.72 328.20 L26.12 327.20 L26.51 326.20 L26.91 325.21 L27.31 324.21 L27.71 323.21 L28.11 322.21 L28.51 321.22 L28.92 320.22 L29.32 319.22 L29.73 318.23 L30.14 317.23 L30.55 316.23 L30.96 315.24 L31.37 314.24 L31.78 313.24 L32.20 312.25 L32.61 311.25 L33.03 310.25 L33.45 309.26 L33.87 308.26 L34.29 307.26 L34.71 306.27 L35.14 305.27 L35.56 304.27 L35.99 303.27 L36.42 302.28 L36.84 301.28 L37.28 300.28 L37.71 299.29 L38.14 298.29 L38.58 297.29 L39.01 296.30 L39.45 295.30 L39.89 294.30 L40.33 293.31 L40.77 292.31 L41.22 291.31 L41.66 290.32 L42.11 289.32 L42.56 288.33 L43.01 287.33 L43.46 286.33 L43.91 285.34 L44.37 284.34 L44.83 283.34 L45.28 282.35 L45.74 281.35 L46.20 280.35 L46.67 279.36 L47.13 278.36 L47.60 277.36 L48.07 276.37 L48.53 275.37 L49.01 274.37 L49.48 273.38 L49.95 272.38 L50.43 271.39 L50.91 270.39 L51.39 269.39 L51.87 268.40 L52.35 267.40 L52.84 266.40 L53.33 265.41 L53.81 264.41 L54.31 263.42 L54.80 262.42 L55.29 261.42 L55.79 260.43 L56.29 259.43 L56.79 258.43 L57.29 257.44 L57.79 256.44 L58.30 255.45 L58.81 254.45 L59.32 253.45 L59.83 252.46 L60.34 251.46 L60.86 250.47 L61.38 249.47 L61.90 248.47 L62.42 247.48 L62.94 246.48 L63.47 245.49 L64.00 244.49 L64.53 243.49 L65.06 242.50 L65.60 241.50 L66.13 240.51 L66.67 239.51 L67.21 238.51 L67.76 237.52 L68.30 236.52 L68.85 235.53 L69.40 234.53 L69.96 233.54 L70.51 232.54 L71.07 231.54 L71.63 230.55 L72.19 229.55 L72.76 228.56 L73.33 227.56 L73.90 226.57 L74.47 225.57 L75.04 224.57 L75.62 223.58 L76.20 222.58 L76.78 221.59 L77.37 220.59 L77.96 219.60 L78.55 218.60 L79.14 217.61 L79.74 216.61 L80.34 215.61 L80.94 214.62 L81.54 213.62 L82.15 212.63 L82.76 211.63 L83.37 210.64 L83.99 209.64 L84.61 208.65 L85.23 207.65 L85.85 206.66 L86.48 205.66 L87.11 204.67 L87.74 203.67 L88.38 202.68 L89.02 201.68 L89.66 200.69 L90.31 199.69 L90.96 198.70 L91.61 197.70 L92.27 196.71 L92.93 195.71 L93.59 194.72 L94.26 193.72 L94.93 192.73 L95.60 191.73 L96.27 190.74 L96.95 189.74 L97.64 188.75 L98.32 187.75 L99.01 186.76 L99.71 185.76 L100.41 184.77 L101.11 183.77 L101.81 182.78 L102.52 181.78 L103.24 180.79 L103.95 179.80 L104.67 178.80 L105.40 177.81 L106.13 176.81 L106.86 175.82 L107.60 174.82 L108.34 173.83 L109.09 172.83 L109.84 171.84 L110.59 170.85 L111.35 169.85 L112.11 168.86 L112.88 167.86 L113.65 166.87 L114.43 165.88 L115.21 164.88 L116.00 163.89 L116.79 162.89 L117.58 161.90 L118.38 160.91 L119.19 159.91 L120.00 158.92 L120.82 157.92 L121.64 156.93 L122.46 155.94 L123.29 154.94 L124.13 153.95 L124.97 152.96 L125.82 151.96 L126.67 150.97 L127.53 149.98 L128.39 148.98 L129.26 147.99 L130.14 147.00 L131.02 146.00 L131.91 145.01 L132.80 144.02 L133.70 143.02 L134.61 142.03 L135.52 141.04 L136.44 140.04 L137.36 139.05 L138.29 138.06 L139.23 137.07 L140.18 136.07 L141.13 135.08 L142.09 134.09 L143.05 133.09 L144.03 132.10 L145.01 131.11 L145.99 130.12 L146.99 129.12 L147.99 128.13 L149.00 127.14 L150.02 126.15 L151.05 125.16 L152.08 124.16 L153.13 123.17 L154.18 122.18 L155.24 121.19 L156.30 120.20 L157.38 119.20 L158.47 118.21 L159.56 117.22 L160.67 116.23 L161.78 115.24 L162.90 114.25 L164.04 113.25 L165.18 112.26 L166.33 111.27 L167.50 110.28 L168.67 109.29 L169.85 108.30 L171.05 107.31 L172.26 106.32 L173.47 105.33 L174.70 104.34 L175.94 103.35 L177.19 102.35 L178.46 101.36 L179.73 100.37 L181.02 99.38 L182.32 98.39 L183.64 97.40 L184.97 96.41 L186.31 95.42 L187.66 94.43 L189.03 93.44 L190.42 92.46 L191.81 91.47 L193.23 90.48 L194.66 89.49 L196.10 88.50 L197.56 87.51 L199.04 86.52 L200.53 85.53 L202.05 84.54 L203.57 83.56 L205.12 82.57 L206.69 81.58 L208.27 80.59 L209.87 79.60 L211.50 78.62 L213.14 77.63 L214.80 76.64 L216.49 75.65 L218.20 74.67 L219.93 73.68 L221.68 72.69 L223.45 71.71 L225.26 70.72 L227.08 69.73 L228.93 68.75 L230.81 67.76 L232.71 66.78 L234.65 65.79 L236.61 64.81 L238.60 63.82 L240.60 62.85 L242.60 61.89 L244.60 60.94 L246.60 60.01 L248.60 59.10 L250.60 58.19 L252.60 57.31 L254.60 56.43 L256.60 55.57 L258.60 54.72 L260.60 53.89 L262.60 53.06 L264.60 52.25 L266.60 51.45 L268.60 50.67 L270.60 49.90 L272.60 49.13 L274.60 48.38 L276.60 47.65 L278.60 46.92 L280.60 46.20 L282.60 45.50 L284.60 44.80 L286.60 44.12 L288.60 43.44 L290.60 42.78 L292.60 42.13 L294.60 41.48 L296.60 40.85 L298.60 40.23 L300.60 39.61 L302.60 39.01 L304.60 38.41 L306.60 37.83 L308.60 37.25 L310.60 36.68 L312.60 36.12 L314.60 35.57 L316.60 35.03 L318.60 34.49 L320.60 33.96 L322.60 33.45 L324.60 32.94 L326.60 32.43 L328.60 31.94 L330.60 31.45 L332.60 30.97 L334.60 30.50 L336.60 30.03 L338.60 29.57 L340.60 29.12 L342.60 28.68 L344.60 28.24 L346.60 27.81 L348.60 27.38 L350.60 26.97 L352.60 26.55 L354.60 26.15 L356.60 25.75 L358.60 25.36 L360.60 24.97 L362.60 24.59 L364.60 24.21 L366.60 23.84 L368.60 23.48 L370.60 23.12 L372.60 22.77 L374.60 22.42 L376.60 22.08 L378.60 21.74 L380.60 21.41 L382.60 21.08 L384.60 20.76 L386.60 20.44 L388.60 20.13 L390.60 19.82 L392.60 19.52 L394.60 19.22 L396.60 18.93 L398.60 18.64 L400.60 18.36 L402.60 18.08 L404.60 17.80 L406.60 17.53 L408.60 17.26 L410.60 17.00 L412.60 16.74 L414.60 16.48 L416.60 16.23 L418.60 15.98 L420.60 15.74 L422.60 15.50 L424.60 15.26 L426.60 15.03 L428.60 14.80 L430.60 14.57 L432.60 14.35 L434.60 14.13 L436.60 13.92 L438.60 13.70 L440.60 13.49 L442.60 13.29 L444.60 13.09 L446.60 12.89 L448.60 12.69 L450.60 12.49 L452.60 12.30 L454.60 12.12 L456.60 11.93 L458.60 11.75 L460.60 11.57 L462.60 11.39 L464.60 11.22 L466.60 11.05 L468.60 10.88 L470.60 10.71 L472.60 10.55 L474.60 10.39 L476.60 10.23 L478.60 10.07 L480.60 9.92 L482.60 9.77 L484.60 9.62 L486.60 9.47 L488.60 9.33 L490.60 9.19 L492.60 9.05 L494.60 8.91 L496.60 8.77 L498.60 8.64 L500.60 8.51 L502.60 8.38 L504.60 8.25 L506.60 8.12 L508.60 8.00 L510.60 7.88 L512.60 7.76 L514.60 7.64 L516.60 7.52 L518.60 7.41 L520.60 7.29 L522.60 7.18 L524.60 7.07 L526.60 6.96 L528.60 6.86 L530.60 6.75 L532.60 6.65 L534.60 6.55 L536.60 6.45 L538.60 6.35 L540.60 6.25 L542.60 6.16 L544.60 6.06 L546.60 5.97 L548.60 5.88 L550.60 5.79 L552.60 5.70 L554.60 5.61 L556.60 5.53 L558.60 5.44 L560.60 5.36 L562.60 5.28 L564.60 5.20 L566.60 5.12 L568.60 5.04 L570.60 4.96 L572.60 4.89 L574.60 4.81 L576.60 4.74 L578.60 4.67 L580.60 4.60 L582.60 4.53 L584.60 4.46 L586.60 4.39 L588.60 4.32 L590.60 4.26 L592.60 4.19 L594.60 4.13 L596.60 4.06 L598.60 4.00 L600.60 3.94 L602.60 3.88 L604.60 3.82 L606.60 3.76 L608.60 3.71 L610.60 3.65 L612.60 3.59 L614.60 3.54 L616.60 3.48 L618.60 3.43 L620.60 3.38 L622.60 3.33 L624.60 3.28 L626.60 3.23 L628.60 3.18 L630.60 3.13 L632.60 3.08 L634.60 3.03 L636.60 2.99 L638.60 2.94 L640.60 2.90 L642.60 2.85 L644.60 2.81 L646.60 2.77 L648.60 2.72 " style="fill:none;stroke:#000000;stroke-width:3;" />
    </g>
</svg>