<?xml version="1.0" encoding="utf-8"?>
<!-- Generated by IcoMoon.io -->
<!DOCTYPE svg PUBLIC "-//W3C//DTD SVG 1.1//EN" "http://www.w3.org/Graphics/SVG/1.1/DTD/svg11.dtd">
<svg version="1.1" xmlns="http://www.w3.org/2000/svg" xmlns:xlink="http://www.w3.org/1999/xlink" width="80" height="32"
     viewBox="0 0 80 32">
    <g transform="translate(0 0)">
        <path d="M21.088 18.096c-1.149 0-2.080 1.29-2.080 2.878 0 1.59 0.931 2.88 2.080 2.88s2.080-1.29 2.080-2.88c-0.002-1.59-0.933-2.878-2.080-2.878zM28.33 10.602c0.237-0.584 0.248-3.904-1.014-7.082 0 0-2.899 0.317-7.283 3.326-0.92-0.254-2.477-0.381-4.032-0.381-1.557 0-3.112 0.128-4.034 0.381-4.382-3.010-7.28-3.326-7.28-3.326-1.262 3.178-1.253 6.498-1.014 7.082-1.485 1.613-2.392 3.549-2.392 6.194 0 11.498 9.539 11.682 11.947 11.682 0.546 0 1.63 0.002 2.774 0.003 1.144-0.002 2.229-0.003 2.771-0.003 2.41 0 11.947-0.184 11.947-11.682 0-2.645-0.906-4.581-2.39-6.194zM16.045 27.064h-0.088c-6.035 0-10.736-0.72-10.736-6.586 0-1.405 0.498-2.709 1.674-3.79 1.966-1.803 5.29-0.848 9.062-0.848 0.014 0 0.030 0 0.045-0.002 0.016 0 0.030 0.002 0.043 0.002 3.773 0 7.098-0.955 9.062 0.848 1.176 1.082 1.672 2.386 1.672 3.79 0 5.866-4.698 6.586-10.734 6.586zM10.914 18.096c-1.149 0-2.080 1.29-2.080 2.878 0 1.59 0.931 2.88 2.080 2.88s2.080-1.29 2.080-2.88c0-1.59-0.931-2.878-2.080-2.878z"
              fill="#fff"/>
    </g>
    <g transform="translate(48 0)">
        <path d="M30.72 6.869c-1.085 0.482-2.248 0.805-3.47 0.952 1.248-0.747 2.206-1.931 2.656-3.341-1.166 0.691-2.459 1.195-3.834 1.466-1.102-1.174-2.672-1.907-4.41-1.907-3.336 0-6.040 2.704-6.040 6.038 0 0.474 0.053 0.934 0.157 1.376-5.019-0.251-9.47-2.656-12.448-6.31-0.522 0.891-0.821 1.93-0.821 3.037 0 2.096 1.067 3.944 2.688 5.027-0.99-0.032-1.922-0.302-2.736-0.755 0 0.026 0 0.050 0 0.075 0 2.926 2.083 5.366 4.845 5.923-0.506 0.138-1.040 0.211-1.592 0.211-0.389 0-0.766-0.037-1.136-0.107 0.768 2.4 3 4.146 5.642 4.194-2.067 1.621-4.67 2.586-7.501 2.586-0.488 0-0.968-0.029-1.44-0.085 2.672 1.714 5.846 2.714 9.259 2.714 11.109 0 17.184-9.203 17.184-17.186 0-0.261-0.005-0.522-0.018-0.781 1.181-0.851 2.203-1.915 3.014-3.126z"
              fill="#fff"/>
    </g>
</svg>
