<?xml version="1.0" encoding="UTF-8" standalone="no"?>
<!-- Created with Inkscape (http://www.inkscape.org/) -->
<svg
   xmlns="http://www.w3.org/2000/svg"
   xmlns:xlink="http://www.w3.org/1999/xlink"
   xmlns:sodipodi="http://sodipodi.sourceforge.net/DTD/sodipodi-0.dtd"
   xmlns:inkscape="http://www.inkscape.org/namespaces/inkscape"
   width="48px"
   height="48px">
  <g>
    <path
       sodipodi:type="arc"
       style="fill:#eab700;fill-opacity:1;fill-rule:evenodd;stroke:none;stroke-width:1px;stroke-linecap:butt;stroke-linejoin:miter;stroke-opacity:1"
       id="path1880"
       sodipodi:cx="23.932585"
       sodipodi:cy="23.932585"
       sodipodi:rx="20.022472"
       sodipodi:ry="20.022472"
       d="M 43.955057 23.932585 A 20.022472 20.022472 0 1 1  3.9101124,23.932585 A 20.022472 20.022472 0 1 1  43.955057 23.932585 z" />
    <path
       sodipodi:type="arc"
       style="fill:white;fill-opacity:1;fill-rule:evenodd;stroke:none;stroke-width:1px;stroke-linecap:butt;stroke-linejoin:miter;stroke-opacity:1"
       id="path4540"
       sodipodi:cx="24"
       sodipodi:cy="24"
       sodipodi:rx="16"
       sodipodi:ry="16"
       d="M 40 24 A 16 16 0 1 1  8,24 A 16 16 0 1 1  40 24 z" />
    <path
       sodipodi:type="arc"
       style="fill:#eab700;fill-opacity:1;fill-rule:evenodd;stroke:none;stroke-width:1px;stroke-linecap:butt;stroke-linejoin:miter;stroke-opacity:1"
       id="path5427"
       sodipodi:cx="15"
       sodipodi:cy="18"
       sodipodi:rx="4"
       sodipodi:ry="6.07096"
       d="M 19 18 A 4 6.07096 0 1 1  11,18 A 4 6.07096 0 1 1  19 18 z"
       transform="translate(2,0)" />
    <path
       style="fill:#eab700;fill-opacity:1;fill-rule:evenodd;stroke:#eab700;stroke-width:4;stroke-linecap:round;stroke-linejoin:round;stroke-miterlimit:4;stroke-dasharray:none;stroke-opacity:1"
       d="M 34,28 C 27.49505,28 21,28 14,28 C 18,38 30,38 34,28 z "
       id="path6316"
       sodipodi:nodetypes="ccc" />
    <use
       x="0"
       y="0"
       xlink:href="#path5427"
       id="use7203"
       transform="translate(14,0)"
       width="48"
       height="48" />
  </g>
</svg>
