<?xml version="1.0" encoding="UTF-8" standalone="no"?>
<!-- Created with Inkscape (http://www.inkscape.org/) -->
<svg
   xmlns:dc="http://purl.org/dc/elements/1.1/"
   xmlns:cc="http://web.resource.org/cc/"
   xmlns:rdf="http://www.w3.org/1999/02/22-rdf-syntax-ns#"
   xmlns:svg="http://www.w3.org/2000/svg"
   xmlns="http://www.w3.org/2000/svg"
   xmlns:sodipodi="http://sodipodi.sourceforge.net/DTD/sodipodi-0.dtd"
   xmlns:inkscape="http://www.inkscape.org/namespaces/inkscape"
   width="48px"
   height="48px">
  <g>
    <path
       sodipodi:type="arc"
       style="fill:#718c00;fill-opacity:1;fill-rule:evenodd;stroke:none;stroke-width:1px;stroke-linecap:butt;stroke-linejoin:miter;stroke-opacity:1"
       id="path1880"
       sodipodi:cx="23.932585"
       sodipodi:cy="23.932585"
       sodipodi:rx="20.022472"
       sodipodi:ry="20.022472"
       d="M 43.955057 23.932585 A 20.022472 20.022472 0 1 1  3.9101124,23.932585 A 20.022472 20.022472 0 1 1  43.955057 23.932585 z" />
    <path
       sodipodi:type="arc"
       style="fill:white;fill-opacity:1;fill-rule:evenodd;stroke:none;stroke-width:1px;stroke-linecap:butt;stroke-linejoin:miter;stroke-opacity:1"
       id="path4540"
       sodipodi:cx="24"
       sodipodi:cy="24"
       sodipodi:rx="16"
       sodipodi:ry="16"
       d="M 40 24 A 16 16 0 1 1  8,24 A 16 16 0 1 1  40 24 z" />
    <path
       style="fill:#718c00;fill-opacity:1;fill-rule:evenodd;stroke:none;stroke-width:1px;stroke-linecap:butt;stroke-linejoin:miter;stroke-opacity:1"
       d="M 7.4879774,18 L 40.512023,18 C 40.512023,18 40.512023,28.264486 31.076581,30.830607 C 25.1002,32.455981 24,21.849182 24,21.849182 C 24,21.849182 22.757795,32.417361 16.923419,30.830607 C 7.4879774,28.264486 7.4879774,18 7.4879774,18 z "
       id="path10756"
       sodipodi:nodetypes="ccscsc" />
  </g>
</svg>
