<?xml version="1.0" encoding="UTF-8" standalone="no"?>
<!-- Created with Inkscape (http://www.inkscape.org/) -->
<svg
   xmlns:dc="http://purl.org/dc/elements/1.1/"
   xmlns:cc="http://web.resource.org/cc/"
   xmlns:rdf="http://www.w3.org/1999/02/22-rdf-syntax-ns#"
   xmlns:svg="http://www.w3.org/2000/svg"
   xmlns="http://www.w3.org/2000/svg"
   xmlns:xlink="http://www.w3.org/1999/xlink"
   xmlns:sodipodi="http://sodipodi.sourceforge.net/DTD/sodipodi-0.dtd"
   xmlns:inkscape="http://www.inkscape.org/namespaces/inkscape"
   width="48px"
   height="48px"
   id="svg1872">
  <g>
    <path
       sodipodi:type="arc"
       style="fill:#4d4d4c;fill-opacity:1;fill-rule:evenodd;stroke:none;stroke-width:1px;stroke-linecap:butt;stroke-linejoin:miter;stroke-opacity:1"
       id="path1880"
       sodipodi:cx="23.932585"
       sodipodi:cy="23.932585"
       sodipodi:rx="20.022472"
       sodipodi:ry="20.022472"
       d="M 43.955057 23.932585 A 20.022472 20.022472 0 1 1  3.9101124,23.932585 A 20.022472 20.022472 0 1 1  43.955057 23.932585 z" />
    <path
       sodipodi:type="arc"
       style="fill:white;fill-opacity:1;fill-rule:evenodd;stroke:none;stroke-width:1px;stroke-linecap:butt;stroke-linejoin:miter;stroke-opacity:1"
       id="path4540"
       sodipodi:cx="24"
       sodipodi:cy="24"
       sodipodi:rx="16"
       sodipodi:ry="16"
       d="M 40 24 A 16 16 0 1 1  8,24 A 16 16 0 1 1  40 24 z" />
    <path
       sodipodi:type="arc"
       style="fill:#4d4d4c;fill-opacity:1;fill-rule:evenodd;stroke:none;stroke-width:1px;stroke-linecap:butt;stroke-linejoin:miter;stroke-opacity:1"
       id="path5427"
       sodipodi:cx="15"
       sodipodi:cy="18"
       sodipodi:rx="4.0168543"
       sodipodi:ry="4.0168543"
       d="M 19.016854 18 A 4.0168543 4.0168543 0 1 1  10.983146,18 A 4.0168543 4.0168543 0 1 1  19.016854 18 z"
       transform="translate(2,0)" />
    <path
       style="fill:none;fill-opacity:0.75;fill-rule:evenodd;stroke:#4d4d4c;stroke-width:4;stroke-linecap:round;stroke-linejoin:miter;stroke-miterlimit:4;stroke-dasharray:none;stroke-opacity:1"
       d="M 15,31.25 C 21,24.25 27,24.25 33,31.25"
       id="path6316"
       sodipodi:nodetypes="cc" />
    <use
       x="0"
       y="0"
       xlink:href="#path5427"
       id="use7203"
       transform="translate(14,0)"
       width="48"
       height="48" />
  </g>
</svg>
